<?xml version="1.0" encoding="UTF-8"?>
<svg id="Layer_1" data-name="Layer 1" xmlns="http://www.w3.org/2000/svg" viewBox="0 0 651.97 651.97">
  <defs>
    <style>
      .cls-1 {
        fill: #fff;
      }

      .cls-2 {
        fill: #2c2f31;
      }

      .cls-3 {
        fill: #f58a2c;
      }
    </style>
  </defs>
  <path class="cls-1" d="M551.49,391.22l-44.93-44.04v-73.04c0-9.42-7.64-17.06-17.06-17.06h-23.78c-8.85,0-16.02,7.17-16.02,16.02v18.33l-101.98-99.96c-6.04-5.92-13.89-8.88-21.74-8.88s-15.7,2.96-21.74,8.88l-203.77,199.74c-8.27,8.11-10.81,20.41-6.43,31.13,4.38,10.72,14.81,17.73,26.39,17.73h10.85v157.66c0,16.27,13.19,29.47,29.47,29.47h330.49c16.27,0,29.47-13.19,29.47-29.47v-157.66h10.85c11.58,0,22.01-7.01,26.39-17.73,4.38-10.72,1.84-23.02-6.44-31.13Z"/>
  <g>
    <path class="cls-2" d="M549.1,65.49c-15.21-26.85-39.67-39.62-67.18-40.73-66.31.57-105.24,67.29-72.71,119.94,20.46,33.12,42.84,65.11,64.44,97.56,3.34,5.02,6.54,5,9.96.11,3.67-5.24,7.15-10.62,10.68-15.95,17.46-26.34,35.29-52.47,52.28-79.11,16.94-26.56,18.07-54.41,2.53-81.82Z"/>
    <path class="cls-1" d="M478.55,151.71c-28.38,0-51.39-22.58-51.38-50.44,0-27.34,23.61-50.34,51.65-50.33,28.39.01,51.34,22.56,51.35,50.47.02,27.43-23.45,50.29-51.63,50.3Z"/>
  </g>
  <g>
    <path class="cls-3" d="M202.04,465.77l116.05,59.97c2.82,1.46,5.98,2.22,9.15,2.22s6.33-.77,9.15-2.22l116.05-59.97v72.14l-65.87,34.04c-9.2,4.75-18.96,8.39-29.01,10.82-9.91,2.39-20.12,3.61-30.32,3.61s-20.41-1.21-30.32-3.61c-10.05-2.43-19.81-6.07-29.01-10.82l-65.87-34.04v-72.14h0Z"/>
    <path class="cls-3" d="M327.24,345.36c-2.06,0-4.12.36-6.09,1.08l-176.7,64.73c-4.94,1.81-5.37,8.63-.7,11.05l177.16,91.72c1.98,1.03,4.16,1.54,6.33,1.54s4.34-.51,6.33-1.54l177.16-91.72c4.67-2.42,4.24-9.24-.7-11.05l-176.7-64.73c-1.97-.72-4.03-1.08-6.09-1.08h0Z"/>
    <path class="cls-3" d="M166.13,426.4v29.43c-1.25-1-2.83-1.6-4.55-1.6h-.02c-.14,0-.29,0-.43.01-1.56.09-2.99.67-4.14,1.59v-29.43h9.14Z"/>
    <path class="cls-3" d="M182.3,520.55l-13.76-44.06-1.38-4.42-1.4-4.49c-1.19.83-2.63,1.32-4.19,1.32-1.7,0-3.27-.58-4.52-1.56l-1.42,4.55-1.39,4.44-13.82,44.22c-.91,2.91-.68,6.02.64,8.77,1.32,2.75,3.61,4.87,6.44,5.98,4.47,1.75,9.17,2.62,13.86,2.62s9.39-.87,13.86-2.62c2.84-1.11,5.13-3.23,6.44-5.98,1.32-2.75,1.54-5.86.64-8.77Z"/>
    <path class="cls-3" d="M166.13,445.73c-1.45-.42-2.99-.64-4.57-.64s-3.12.23-4.57.65c-6.87,1.99-11.91,8.33-11.91,15.83,0,6.46,3.73,12.06,9.15,14.76,2.21,1.1,4.7,1.72,7.33,1.72,2.49,0,4.86-.56,6.98-1.55,5.61-2.63,9.5-8.33,9.5-14.93,0-7.5-5.04-13.85-11.91-15.83ZM165.75,467.59c-1.19.83-2.63,1.32-4.19,1.32-1.7,0-3.27-.58-4.52-1.56-1.71-1.35-2.81-3.43-2.81-5.77s1.08-4.39,2.76-5.73c1.15-.92,2.58-1.5,4.14-1.59.14,0,.29-.01.43-.01h.02c1.72,0,3.3.6,4.55,1.6,1.68,1.35,2.76,3.42,2.76,5.73,0,2.49-1.24,4.69-3.14,6.02Z"/>
  </g>
</svg>