<?xml version="1.0" encoding="UTF-8"?>
<svg id="Layer_1" data-name="Layer 1" xmlns="http://www.w3.org/2000/svg" viewBox="0 0 651.97 651.97">
  <defs>
    <style>
      .cls-1 {
        fill: #fff;
      }

      .cls-2 {
        fill: #2c2f31;
      }

      .cls-3 {
        fill: #f58a2c;
      }
    </style>
  </defs>
  <g>
    <g>
      <path class="cls-1" d="M146.45,618.58c4.36,0,7.07-2.48,7.07-6.52v-12.34h2.05v12.22c0,5.2-3.48,8.54-8.97,8.54s-9.15-3.36-9.15-8.54v-12.22h2.05v12.34c0,4.06,2.63,6.52,6.96,6.52ZM144.46,595.26c.76,0,1.26.47,1.26,1.14s-.5,1.14-1.26,1.14-1.26-.44-1.26-1.14.5-1.14,1.26-1.14ZM148.53,595.26c.76,0,1.26.47,1.26,1.14s-.5,1.14-1.26,1.14-1.26-.44-1.26-1.14.5-1.14,1.26-1.14Z"/>
      <path class="cls-1" d="M160.28,620.19h-2.05v-7.54c0-4.41,2.95-7.37,7.51-7.37s7.37,2.95,7.37,7.37v7.54h-2.05v-7.78c0-3.13-2.19-5.23-5.41-5.23s-5.38,2.13-5.38,5.23v7.78Z"/>
      <path class="cls-1" d="M177.09,599.44c.79,0,1.32.53,1.32,1.32s-.53,1.32-1.32,1.32-1.32-.53-1.32-1.32.53-1.32,1.32-1.32ZM176.06,605.58h2.05v14.62h-2.05v-14.62Z"/>
      <path class="cls-1" d="M181.03,605.58h2.05v12.57c1.34,0,9.03.76,9.03-8.83v-3.74h2.05v3.48c0,6.93-3.77,11.14-9.94,11.14h-3.19v-14.62Z"/>
      <path class="cls-1" d="M198.48,612.97c.03,3.33,2.28,5.61,5.64,5.61,2.81,0,4.74-1.61,5.35-4.09h2.05c-.64,3.65-3.36,5.99-7.4,5.99-4.62,0-7.69-3.04-7.69-7.6s3.07-7.6,7.69-7.6,7.43,2.72,7.4,6.99v.7h-13.04ZM209.42,611.07c-.61-2.48-2.48-3.89-5.29-3.89s-4.74,1.52-5.41,3.89h10.7Z"/>
      <path class="cls-1" d="M216.23,620.19h-2.05v-7.54c0-4.41,2.95-7.37,7.51-7.37v1.9c-3.27,0-5.47,2.05-5.47,5.23v7.78Z"/>
      <path class="cls-1" d="M230.61,605.25c2.16,0,3.89.23,5.47.82v2.05c-1.02-.35-3.19-.96-5.73-.96-2.86,0-4.33.67-4.33,2.02,0,3.36,10.67,1.55,10.67,6.81,0,2.75-2.13,4.53-6.61,4.53-2.16,0-3.92-.2-5.5-.82v-2.05c1.02.38,3.22.99,5.79.99,2.86,0,4.27-1.08,4.27-2.43,0-3.36-10.67-1.58-10.67-6.84,0-2.75,2.19-4.12,6.64-4.12Z"/>
      <path class="cls-1" d="M240.55,599.44c.79,0,1.32.53,1.32,1.32s-.53,1.32-1.32,1.32-1.32-.53-1.32-1.32.53-1.32,1.32-1.32ZM239.52,605.58h2.05v14.62h-2.05v-14.62Z"/>
      <path class="cls-1" d="M244.49,613.12v-10.58h2.05v3.22h5.91v1.84h-5.91v5.76c0,3.71,1.49,4.94,5.91,4.94v1.9c-5.67,0-7.95-2.02-7.95-7.07Z"/>
      <path class="cls-1" d="M256.01,612.97c.03,3.33,2.28,5.61,5.64,5.61,2.81,0,4.74-1.61,5.35-4.09h2.05c-.64,3.65-3.36,5.99-7.4,5.99-4.62,0-7.69-3.04-7.69-7.6s3.07-7.6,7.69-7.6,7.43,2.72,7.4,6.99v.7h-13.04ZM266.94,611.07c-.61-2.48-2.48-3.89-5.29-3.89s-4.74,1.52-5.41,3.89h10.7Z"/>
      <path class="cls-1" d="M271.71,598.27h2.05v21.92h-2.05v-21.92Z"/>
      <path class="cls-1" d="M277.73,599.44c.79,0,1.32.53,1.32,1.32s-.53,1.32-1.32,1.32-1.32-.53-1.32-1.32.53-1.32,1.32-1.32ZM276.71,605.58h2.05v14.62h-2.05v-14.62Z"/>
      <path class="cls-1" d="M281.68,598.27h2.05v21.92h-2.05v-21.92Z"/>
      <path class="cls-1" d="M288.43,612.97c.03,3.33,2.28,5.61,5.64,5.61,2.81,0,4.74-1.61,5.35-4.09h2.05c-.64,3.65-3.36,5.99-7.4,5.99-4.62,0-7.69-3.04-7.69-7.6s3.07-7.6,7.69-7.6,7.43,2.72,7.4,6.99v.7h-13.04ZM299.36,611.07c-.61-2.48-2.48-3.89-5.29-3.89s-4.74,1.52-5.41,3.89h10.7Z"/>
      <path class="cls-1" d="M306.17,620.19h-2.05v-7.54c0-4.41,2.95-7.37,7.51-7.37v1.9c-3.27,0-5.47,2.05-5.47,5.23v7.78Z"/>
      <path class="cls-1" d="M321.58,613.12v-10.58h2.05v3.22h5.91v1.84h-5.91v5.76c0,3.71,1.49,4.94,5.91,4.94v1.9c-5.67,0-7.95-2.02-7.95-7.07Z"/>
      <path class="cls-1" d="M333.1,612.97c.03,3.33,2.28,5.61,5.64,5.61,2.81,0,4.74-1.61,5.35-4.09h2.05c-.64,3.65-3.36,5.99-7.4,5.99-4.62,0-7.69-3.04-7.69-7.6s3.07-7.6,7.69-7.6,7.43,2.72,7.4,6.99v.7h-13.04ZM344.03,611.07c-.61-2.48-2.48-3.89-5.29-3.89s-4.74,1.52-5.41,3.89h10.7Z"/>
      <path class="cls-1" d="M348.79,598.27h2.05v18.91l8.71-11.61h2.43l-4.94,6.46,7.1,8.16h-2.57l-5.76-6.55-4.97,6.55h-2.05v-21.92Z"/>
      <path class="cls-1" d="M381.62,618.58c2.81,0,4.74-1.61,5.35-4.09h2.05c-.7,3.95-3.62,5.99-7.54,5.99l-.23.58c2.19,0,3.3.79,3.3,2.46,0,1.49-1.29,2.66-3.13,2.66-1.7,0-2.92-.94-2.92-2.19l1.32-.64c.12,1.11.56,1.46,1.61,1.46s1.67-.53,1.67-1.29c0-1.02-.82-1.46-3.57-1.46l.58-1.7c-3.77-.61-6.17-3.45-6.17-7.48,0-4.56,3.07-7.6,7.69-7.6,4.03,0,6.75,2.34,7.4,5.99h-2.05c-.61-2.48-2.54-4.09-5.35-4.09-3.39,0-5.64,2.31-5.64,5.7s2.25,5.7,5.64,5.7Z"/>
      <path class="cls-1" d="M399.22,605.28c4.62,0,7.69,3.04,7.69,7.6v7.31h-2.05v-2.81l-.26.03v.26c0,1.02-1.84,2.81-5.61,2.81-4.39,0-7.45-3.01-7.45-7.45s3.04-7.75,7.69-7.75ZM399.1,618.55c4.3,0,5.76-2.28,5.76-5.67s-2.16-5.7-5.64-5.7-5.64,2.31-5.64,5.7,2.08,5.67,5.52,5.67Z"/>
      <path class="cls-1" d="M409.57,613.12v-10.58h2.05v3.22h5.91v1.84h-5.91v5.76c0,3.71,1.49,4.94,5.91,4.94v1.9c-5.67,0-7.95-2.02-7.95-7.07Z"/>
      <path class="cls-1" d="M420.29,605.58h2.05v14.62h-2.05v-14.62Z"/>
      <path class="cls-1" d="M440.41,605.28c4.62,0,7.69,3.04,7.69,7.6v7.31h-2.05v-2.81l-.26.03v.26c0,1.02-1.84,2.81-5.61,2.81-4.39,0-7.45-3.01-7.45-7.45s3.04-7.75,7.69-7.75ZM440.29,618.55c4.3,0,5.76-2.28,5.76-5.67s-2.16-5.7-5.64-5.7-5.64,2.31-5.64,5.7,2.08,5.67,5.52,5.67Z"/>
      <path class="cls-1" d="M450.75,598.27h2.05v21.92h-2.05v-21.92Z"/>
      <path class="cls-1" d="M455.46,613.12v-10.58h2.05v3.22h5.91v1.84h-5.91v5.76c0,3.71,1.49,4.94,5.91,4.94v1.9c-5.67,0-7.95-2.02-7.95-7.07Z"/>
      <path class="cls-1" d="M466.19,605.58h2.05v14.62h-2.05v-14.62Z"/>
      <path class="cls-1" d="M473.23,620.19h-2.05v-7.54c0-4.41,2.95-7.37,7.51-7.37s7.37,2.95,7.37,7.37v7.54h-2.05v-7.78c0-3.13-2.19-5.23-5.41-5.23s-5.38,2.13-5.38,5.23v7.78Z"/>
      <path class="cls-1" d="M496.18,605.28c3.77,0,5.61,1.78,5.61,2.81v.26h.26v-10.09h2.05v14.62c0,4.56-3.07,7.6-7.69,7.6s-7.69-3.13-7.69-7.75,3.07-7.45,7.45-7.45ZM496.41,618.55c3.48,0,5.64-2.16,5.64-5.67s-1.46-5.7-5.76-5.7c-3.45,0-5.52,2.16-5.52,5.7s2.28,5.67,5.64,5.67Z"/>
      <path class="cls-1" d="M514.45,605.28c4.62,0,7.69,3.04,7.69,7.6v7.31h-2.05v-2.81l-.26.03v.26c0,1.02-1.84,2.81-5.61,2.81-4.38,0-7.45-3.01-7.45-7.45s3.04-7.75,7.69-7.75ZM514.33,618.55c4.3,0,5.76-2.28,5.76-5.67s-2.16-5.7-5.64-5.7-5.64,2.31-5.64,5.7,2.08,5.67,5.52,5.67Z"/>
    </g>
    <g>
      <path class="cls-1" d="M94.26,551.71c2.36-3.43,6.33-6.1,12.96-6.1,12.57,0,17.53,9.45,17.53,16.08v22.71h-9.15v-22.48c0-5.41-3.96-7.85-8.38-7.85s-8.38,2.44-8.38,7.85v22.48h-9.14v-22.48c0-5.41-3.96-7.85-8.38-7.85s-8.38,2.44-8.38,7.85v22.48h-9.14v-22.71c0-6.63,4.95-16.08,17.53-16.08,6.63,0,10.59,2.67,12.96,6.1Z"/>
      <path class="cls-1" d="M133.89,530.22c2.82,0,5.03,2.29,5.03,5.03,0,2.9-2.21,5.11-5.03,5.11s-5.03-2.21-5.03-5.11c0-2.74,2.21-5.03,5.03-5.03ZM129.32,546.3h9.15v38.1h-9.15v-38.1Z"/>
      <path class="cls-1" d="M172.38,572.9c0,7.77-6.17,11.96-14.86,11.96-8.08,0-13.26-3.66-15.62-5.79l4.88-7.16c3.2,3.05,7.24,4.57,10.97,4.57,3.12,0,5.49-1.07,5.49-3.28,0-6.55-20.73-2.51-20.73-16.46,0-7.01,5.26-11.05,13.87-11.05,7.54,0,12.5,3.05,15.85,5.79l-4.88,7.09c-4.04-3.35-8-4.5-11.13-4.5s-4.57.99-4.57,2.52c0,5.56,20.73,2.06,20.73,16.31Z"/>
      <path class="cls-1" d="M214.07,565.51v18.9h-9.14v-3.66c-1.83,2.36-5.72,4.34-11.28,4.34-11.05,0-18.98-7.93-18.98-19.74s7.93-19.59,19.66-19.59,19.74,7.93,19.74,19.74ZM194.4,554.15c-6.4,0-10.59,4.19-10.59,11.28s4.19,11.28,10.59,11.28,10.52-4.19,10.52-11.28-4.19-11.28-10.52-11.28Z"/>
      <path class="cls-1" d="M238.76,538.91c-6.25,0-9.22,2.13-9.91,7.39h8.61v8.38h-8.69v29.72h-9.14v-29.72h-3.81v-8.38h3.89c.84-10.29,7.39-15.78,19.05-15.78v8.38Z"/>
      <path class="cls-1" d="M245.7,530.22c2.82,0,5.03,2.29,5.03,5.03,0,2.9-2.21,5.11-5.03,5.11s-5.03-2.21-5.03-5.11c0-2.74,2.21-5.03,5.03-5.03ZM241.12,546.3h9.15v38.1h-9.15v-38.1Z"/>
      <path class="cls-1" d="M273.36,545.62v8.38c-6.1,0-9.75,2.97-9.75,9.07v21.34h-9.15v-21.34c0-11.58,7.32-17.45,18.9-17.45Z"/>
      <path class="cls-1" d="M281.44,530.22c2.82,0,5.03,2.29,5.03,5.03,0,2.9-2.21,5.11-5.03,5.11s-5.03-2.21-5.03-5.11c0-2.74,2.21-5.03,5.03-5.03ZM276.87,546.3h9.15v38.1h-9.15v-38.1Z"/>
      <path class="cls-1" d="M325.26,561.7v22.71h-9.14v-22.48c0-5.41-3.96-7.85-8.38-7.85s-8.38,2.44-8.38,7.85v22.48h-9.15v-22.71c0-6.63,4.95-16.08,17.53-16.08s17.53,9.45,17.53,16.08Z"/>
      <path class="cls-1" d="M325.26,546.3h9.83l9.3,25.83,9.3-25.83h9.83l-14.4,38.1h-9.45l-14.4-38.1Z"/>
      <path class="cls-1" d="M401.78,565.51v18.9h-9.14v-3.66c-1.83,2.36-5.72,4.34-11.28,4.34-11.05,0-18.98-7.93-18.98-19.74s7.93-19.59,19.66-19.59,19.74,7.93,19.74,19.74ZM382.11,554.15c-6.4,0-10.59,4.19-10.59,11.28s4.19,11.28,10.59,11.28,10.52-4.19,10.52-11.28-4.19-11.28-10.52-11.28Z"/>
      <path class="cls-1" d="M425.25,545.62v8.38c-6.1,0-9.75,2.97-9.75,9.07v21.34h-9.15v-21.34c0-11.58,7.32-17.45,18.9-17.45Z"/>
      <path class="cls-1" d="M434.4,573.89c3.35,0,5.64,2.21,5.64,5.56s-2.29,5.64-5.64,5.64-5.64-2.21-5.64-5.64,2.29-5.56,5.64-5.56Z"/>
      <path class="cls-1" d="M463.13,576.71c4.65,0,8.08-2.21,9.68-6.1h9.53c-2.06,8.84-9.14,14.48-19.13,14.48-11.81,0-19.74-7.93-19.74-19.74s7.93-19.59,19.74-19.59c9.91,0,17.07,5.56,19.05,14.25h-9.53c-1.6-3.73-5.03-5.87-9.6-5.87-6.33,0-10.52,4.19-10.52,11.28s4.19,11.28,10.52,11.28Z"/>
      <path class="cls-1" d="M504.05,545.77c11.81,0,19.66,7.85,19.66,19.59s-7.85,19.74-19.66,19.74-19.74-7.93-19.74-19.74,7.93-19.59,19.74-19.59ZM503.98,576.71c6.4,0,10.59-4.19,10.59-11.28s-4.19-11.28-10.59-11.28-10.52,4.19-10.52,11.28,4.19,11.28,10.52,11.28Z"/>
      <path class="cls-1" d="M557.71,551.71c2.36-3.43,6.33-6.1,12.96-6.1,12.57,0,17.53,9.45,17.53,16.08v22.71h-9.14v-22.48c0-5.41-3.96-7.85-8.38-7.85s-8.38,2.44-8.38,7.85v22.48h-9.14v-22.48c0-5.41-3.96-7.85-8.38-7.85s-8.38,2.44-8.38,7.85v22.48h-9.15v-22.71c0-6.63,4.95-16.08,17.53-16.08,6.63,0,10.59,2.67,12.96,6.1Z"/>
    </g>
  </g>
  <path class="cls-1" d="M502.59,314.25l-34.65-33.97v-56.33c0-7.27-5.89-13.16-13.16-13.16h-18.34c-6.83,0-12.36,5.53-12.36,12.36v14.14l-78.65-77.1c-4.66-4.57-10.71-6.85-16.77-6.85s-12.11,2.28-16.77,6.85l-157.16,154.05c-6.38,6.25-8.34,15.74-4.96,24.01,3.38,8.27,11.42,13.67,20.35,13.67h8.36v121.6c0,12.55,10.17,22.73,22.73,22.73h254.9c12.55,0,22.73-10.17,22.73-22.73v-121.6h8.36c8.93,0,16.98-5.4,20.35-13.67,3.38-8.27,1.42-17.76-4.96-24.01Z"/>
  <g>
    <path class="cls-2" d="M500.74,63.03c-11.73-20.7-30.6-30.56-51.81-31.42-51.15.44-81.17,51.9-56.08,92.51,15.78,25.55,33.04,50.22,49.7,75.25,2.58,3.87,5.04,3.85,7.68.08,2.83-4.04,5.51-8.19,8.24-12.3,13.47-20.32,27.22-40.47,40.32-61.01,13.06-20.48,13.93-41.96,1.95-63.11Z"/>
    <path class="cls-1" d="M446.33,129.53c-21.89,0-39.63-17.42-39.63-38.9,0-21.09,18.21-38.83,39.84-38.82,21.9,0,39.59,17.4,39.61,38.93.01,21.16-18.09,38.79-39.82,38.8Z"/>
  </g>
  <g>
    <path class="cls-3" d="M233.07,371.75l89.5,46.26c2.17,1.12,4.61,1.72,7.06,1.72s4.88-.59,7.06-1.72l89.5-46.26v55.64l-50.8,26.26c-7.09,3.67-14.62,6.47-22.37,8.34-7.65,1.85-15.51,2.78-23.39,2.78s-15.74-.94-23.39-2.78c-7.75-1.87-15.28-4.68-22.37-8.34l-50.8-26.26v-55.64h0Z"/>
    <path class="cls-3" d="M329.63,278.88c-1.59,0-3.18.28-4.7.83l-136.28,49.92c-3.81,1.4-4.14,6.65-.54,8.52l136.64,70.74c1.53.79,3.21,1.19,4.88,1.19s3.35-.4,4.88-1.19l136.64-70.74c3.6-1.87,3.27-7.12-.54-8.52l-136.28-49.92c-1.52-.56-3.11-.83-4.7-.83h0Z"/>
    <path class="cls-3" d="M205.37,341.39v22.7c-.96-.77-2.18-1.23-3.51-1.24h-.01c-.11,0-.22,0-.33,0-1.2.07-2.31.52-3.2,1.23v-22.7h7.05Z"/>
    <path class="cls-3" d="M217.84,414l-10.62-33.98-1.06-3.41-1.08-3.47c-.92.64-2.03,1.02-3.23,1.02-1.31,0-2.52-.45-3.49-1.2l-1.1,3.51-1.07,3.42-10.66,34.11c-.7,2.24-.53,4.64.49,6.76,1.02,2.12,2.78,3.75,4.97,4.61,3.45,1.35,7.07,2.02,10.69,2.02s7.24-.67,10.69-2.02c2.19-.86,3.95-2.49,4.97-4.61,1.02-2.12,1.19-4.52.49-6.76Z"/>
    <path class="cls-3" d="M205.37,356.3c-1.12-.32-2.3-.5-3.53-.5s-2.41.17-3.53.5c-5.3,1.53-9.18,6.43-9.18,12.21,0,4.98,2.88,9.3,7.06,11.38,1.7.85,3.62,1.33,5.65,1.33,1.92,0,3.75-.43,5.38-1.2,4.33-2.03,7.33-6.43,7.33-11.51,0-5.79-3.89-10.68-9.18-12.21ZM205.07,373.15c-.92.64-2.03,1.02-3.23,1.02-1.31,0-2.52-.45-3.49-1.2-1.32-1.04-2.17-2.65-2.17-4.45s.83-3.38,2.13-4.42c.89-.71,1.99-1.16,3.2-1.23.11,0,.22,0,.33,0h.01c1.33,0,2.55.47,3.51,1.24,1.3,1.04,2.13,2.63,2.13,4.42,0,1.92-.96,3.62-2.42,4.64Z"/>
  </g>
</svg>