<?xml version="1.0" encoding="UTF-8"?>
<svg id="Layer_1" data-name="Layer 1" xmlns="http://www.w3.org/2000/svg" viewBox="0 0 651.97 191.25">
  <defs>
    <style>
      .cls-1 {
        fill: #2c2f31;
      }
    </style>
  </defs>
  <path class="cls-1" d="M67.99,85.62c3.97-5.77,10.64-10.26,21.8-10.26,21.16,0,29.49,15.9,29.49,27.05v38.21h-15.39v-37.82c0-9.1-6.67-13.21-14.1-13.21s-14.1,4.1-14.1,13.21v37.82h-15.39v-37.82c0-9.1-6.67-13.21-14.1-13.21s-14.1,4.1-14.1,13.21v37.82h-15.39v-38.21c0-11.16,8.33-27.05,29.49-27.05,11.16,0,17.82,4.49,21.8,10.26Z"/>
  <path class="cls-1" d="M134.67,49.46c4.74,0,8.46,3.85,8.46,8.46,0,4.87-3.72,8.59-8.46,8.59s-8.46-3.72-8.46-8.59c0-4.62,3.72-8.46,8.46-8.46ZM126.97,76.52h15.39v64.11h-15.39v-64.11Z"/>
  <path class="cls-1" d="M199.42,121.27c0,13.08-10.39,20.13-25,20.13-13.59,0-22.31-6.15-26.29-9.74l8.21-12.05c5.39,5.13,12.18,7.69,18.46,7.69,5.26,0,9.23-1.8,9.23-5.51,0-11.03-34.88-4.23-34.88-27.7,0-11.8,8.85-18.59,23.34-18.59,12.69,0,21.03,5.13,26.67,9.75l-8.21,11.92c-6.8-5.64-13.46-7.56-18.72-7.56s-7.69,1.67-7.69,4.23c0,9.36,34.88,3.46,34.88,27.44Z"/>
  <path class="cls-1" d="M269.56,108.83v31.8h-15.39v-6.15c-3.08,3.97-9.62,7.31-18.98,7.31-18.59,0-31.93-13.34-31.93-33.21s13.34-32.95,33.08-32.95,33.21,13.33,33.21,33.21ZM236.48,89.73c-10.77,0-17.82,7.05-17.82,18.98s7.05,18.98,17.82,18.98,17.69-7.05,17.69-18.98-7.05-18.98-17.69-18.98Z"/>
  <path class="cls-1" d="M311.1,64.08c-10.51,0-15.51,3.59-16.67,12.44h14.49v14.1h-14.62v50.01h-15.39v-50.01h-6.41v-14.1h6.54c1.41-17.31,12.44-26.54,32.06-26.54v14.1Z"/>
  <path class="cls-1" d="M322.77,49.46c4.74,0,8.46,3.85,8.46,8.46,0,4.87-3.72,8.59-8.46,8.59s-8.46-3.72-8.46-8.59c0-4.62,3.72-8.46,8.46-8.46ZM315.08,76.52h15.39v64.11h-15.39v-64.11Z"/>
  <path class="cls-1" d="M369.32,75.36v14.1c-10.26,0-16.41,5-16.41,15.26v35.9h-15.39v-35.9c0-19.49,12.31-29.36,31.8-29.36Z"/>
  <path class="cls-1" d="M382.91,49.46c4.74,0,8.46,3.85,8.46,8.46,0,4.87-3.72,8.59-8.46,8.59s-8.46-3.72-8.46-8.59c0-4.62,3.72-8.46,8.46-8.46ZM375.22,76.52h15.39v64.11h-15.39v-64.11Z"/>
  <path class="cls-1" d="M456.64,102.42v38.21h-15.39v-37.82c0-9.1-6.67-13.21-14.1-13.21s-14.1,4.1-14.1,13.21v37.82h-15.39v-38.21c0-11.16,8.33-27.05,29.49-27.05s29.49,15.9,29.49,27.05Z"/>
  <path class="cls-1" d="M456.64,76.52h16.54l15.64,43.47,15.64-43.47h16.54l-24.23,64.11h-15.9l-24.23-64.11Z"/>
  <path class="cls-1" d="M585.38,108.83v31.8h-15.39v-6.15c-3.08,3.97-9.62,7.31-18.98,7.31-18.59,0-31.93-13.34-31.93-33.21s13.34-32.95,33.08-32.95,33.21,13.33,33.21,33.21ZM552.3,89.73c-10.77,0-17.82,7.05-17.82,18.98s7.05,18.98,17.82,18.98,17.69-7.05,17.69-18.98-7.05-18.98-17.69-18.98Z"/>
  <path class="cls-1" d="M624.87,75.36v14.1c-10.26,0-16.41,5-16.41,15.26v35.9h-15.39v-35.9c0-19.49,12.31-29.36,31.8-29.36Z"/>
</svg>