<?xml version="1.0" encoding="UTF-8"?>
<svg id="Layer_1" data-name="Layer 1" xmlns="http://www.w3.org/2000/svg" viewBox="0 0 651.97 651.97">
  <defs>
    <style>
      .cls-1 {
        fill: #fff;
      }

      .cls-2 {
        fill: #2c2f31;
      }

      .cls-3 {
        fill: #f58a2c;
      }
    </style>
  </defs>
  <g>
    <g>
      <g>
        <path d="M148.37,613.1c4.32,0,7.01-2.46,7.01-6.46v-12.22h2.03v12.11c0,5.15-3.45,8.46-8.89,8.46s-9.06-3.33-9.06-8.46v-12.11h2.03v12.22c0,4.03,2.61,6.46,6.89,6.46ZM146.4,589.99c.75,0,1.25.46,1.25,1.13s-.49,1.13-1.25,1.13-1.25-.43-1.25-1.13.49-1.13,1.25-1.13ZM150.43,589.99c.75,0,1.25.46,1.25,1.13s-.49,1.13-1.25,1.13-1.25-.43-1.25-1.13.49-1.13,1.25-1.13Z"/>
        <path d="M162.07,614.69h-2.03v-7.47c0-4.37,2.92-7.3,7.44-7.3s7.3,2.92,7.3,7.3v7.47h-2.03v-7.7c0-3.1-2.17-5.18-5.36-5.18s-5.33,2.11-5.33,5.18v7.7Z"/>
        <path d="M178.72,594.13c.78,0,1.3.52,1.3,1.3s-.52,1.3-1.3,1.3-1.3-.52-1.3-1.3.52-1.3,1.3-1.3ZM177.71,600.21h2.03v14.48h-2.03v-14.48Z"/>
        <path d="M182.63,600.21h2.03v12.45c1.33,0,8.95.75,8.95-8.75v-3.71h2.03v3.45c0,6.86-3.74,11.03-9.85,11.03h-3.16v-14.48Z"/>
        <path d="M199.92,607.54c.03,3.3,2.26,5.56,5.59,5.56,2.78,0,4.69-1.59,5.3-4.05h2.03c-.64,3.62-3.33,5.94-7.33,5.94-4.58,0-7.62-3.01-7.62-7.53s3.04-7.53,7.62-7.53,7.36,2.69,7.33,6.92v.69h-12.92ZM210.75,605.66c-.61-2.46-2.46-3.85-5.24-3.85s-4.69,1.51-5.36,3.85h10.6Z"/>
        <path d="M217.5,614.69h-2.03v-7.47c0-4.37,2.92-7.3,7.44-7.3v1.88c-3.24,0-5.42,2.03-5.42,5.18v7.7Z"/>
        <path d="M231.74,599.89c2.14,0,3.85.23,5.42.81v2.03c-1.01-.35-3.16-.96-5.68-.96-2.84,0-4.29.67-4.29,2,0,3.33,10.57,1.53,10.57,6.75,0,2.72-2.11,4.49-6.54,4.49-2.14,0-3.88-.2-5.44-.81v-2.03c1.01.38,3.19.98,5.73.98,2.84,0,4.23-1.07,4.23-2.4,0-3.33-10.57-1.56-10.57-6.78,0-2.72,2.17-4.08,6.57-4.08Z"/>
        <path d="M241.59,594.13c.78,0,1.3.52,1.3,1.3s-.52,1.3-1.3,1.3-1.3-.52-1.3-1.3.52-1.3,1.3-1.3ZM240.58,600.21h2.03v14.48h-2.03v-14.48Z"/>
        <path d="M245.5,607.69v-10.48h2.03v3.19h5.85v1.82h-5.85v5.71c0,3.68,1.48,4.89,5.85,4.89v1.88c-5.62,0-7.88-2-7.88-7.01Z"/>
        <path d="M256.91,607.54c.03,3.3,2.26,5.56,5.59,5.56,2.78,0,4.69-1.59,5.3-4.05h2.03c-.64,3.62-3.33,5.94-7.33,5.94-4.58,0-7.62-3.01-7.62-7.53s3.04-7.53,7.62-7.53,7.36,2.69,7.33,6.92v.69h-12.92ZM267.74,605.66c-.61-2.46-2.46-3.85-5.24-3.85s-4.69,1.51-5.36,3.85h10.6Z"/>
        <path d="M272.46,592.97h2.03v21.72h-2.03v-21.72Z"/>
        <path d="M278.42,594.13c.78,0,1.3.52,1.3,1.3s-.52,1.3-1.3,1.3-1.3-.52-1.3-1.3.52-1.3,1.3-1.3ZM277.41,600.21h2.03v14.48h-2.03v-14.48Z"/>
        <path d="M282.33,592.97h2.03v21.72h-2.03v-21.72Z"/>
        <path d="M289.02,607.54c.03,3.3,2.26,5.56,5.59,5.56,2.78,0,4.69-1.59,5.3-4.05h2.03c-.64,3.62-3.33,5.94-7.33,5.94-4.58,0-7.62-3.01-7.62-7.53s3.04-7.53,7.62-7.53,7.36,2.69,7.33,6.92v.69h-12.92ZM299.85,605.66c-.61-2.46-2.46-3.85-5.24-3.85s-4.69,1.51-5.36,3.85h10.6Z"/>
        <path d="M306.6,614.69h-2.03v-7.47c0-4.37,2.92-7.3,7.44-7.3v1.88c-3.24,0-5.42,2.03-5.42,5.18v7.7Z"/>
        <path d="M321.86,607.69v-10.48h2.03v3.19h5.85v1.82h-5.85v5.71c0,3.68,1.48,4.89,5.85,4.89v1.88c-5.62,0-7.88-2-7.88-7.01Z"/>
        <path d="M333.27,607.54c.03,3.3,2.26,5.56,5.59,5.56,2.78,0,4.69-1.59,5.3-4.05h2.03c-.64,3.62-3.33,5.94-7.33,5.94-4.58,0-7.62-3.01-7.62-7.53s3.04-7.53,7.62-7.53,7.36,2.69,7.33,6.92v.69h-12.92ZM344.1,605.66c-.61-2.46-2.46-3.85-5.24-3.85s-4.69,1.51-5.36,3.85h10.6Z"/>
        <path d="M348.82,592.97h2.03v18.74l8.63-11.5h2.4l-4.89,6.4,7.04,8.08h-2.55l-5.71-6.49-4.92,6.49h-2.03v-21.72Z"/>
        <path d="M381.34,613.1c2.78,0,4.69-1.59,5.3-4.05h2.03c-.69,3.91-3.59,5.94-7.47,5.94l-.23.58c2.17,0,3.27.78,3.27,2.43,0,1.48-1.27,2.64-3.1,2.64-1.68,0-2.9-.93-2.9-2.17l1.3-.64c.12,1.1.55,1.45,1.59,1.45s1.65-.52,1.65-1.27c0-1.01-.81-1.45-3.53-1.45l.58-1.68c-3.74-.61-6.11-3.42-6.11-7.41,0-4.52,3.04-7.53,7.62-7.53,4,0,6.69,2.32,7.33,5.94h-2.03c-.61-2.46-2.52-4.05-5.3-4.05-3.36,0-5.59,2.29-5.59,5.65s2.23,5.65,5.59,5.65Z"/>
        <path d="M398.78,599.92c4.58,0,7.62,3.01,7.62,7.53v7.24h-2.03v-2.78l-.26.03v.26c0,1.01-1.82,2.78-5.56,2.78-4.34,0-7.38-2.98-7.38-7.38s3.01-7.67,7.62-7.67ZM398.66,613.07c4.26,0,5.71-2.26,5.71-5.62s-2.14-5.65-5.59-5.65-5.59,2.29-5.59,5.65,2.06,5.62,5.47,5.62Z"/>
        <path d="M409.03,607.69v-10.48h2.03v3.19h5.85v1.82h-5.85v5.71c0,3.68,1.48,4.89,5.85,4.89v1.88c-5.62,0-7.88-2-7.88-7.01Z"/>
        <path d="M419.66,600.21h2.03v14.48h-2.03v-14.48Z"/>
        <path d="M439.58,599.92c4.58,0,7.62,3.01,7.62,7.53v7.24h-2.03v-2.78l-.26.03v.26c0,1.01-1.82,2.78-5.56,2.78-4.34,0-7.38-2.98-7.38-7.38s3.01-7.67,7.62-7.67ZM439.46,613.07c4.26,0,5.71-2.26,5.71-5.62s-2.14-5.65-5.59-5.65-5.59,2.29-5.59,5.65,2.06,5.62,5.47,5.62Z"/>
        <path d="M449.83,592.97h2.03v21.72h-2.03v-21.72Z"/>
        <path d="M454.49,607.69v-10.48h2.03v3.19h5.85v1.82h-5.85v5.71c0,3.68,1.48,4.89,5.85,4.89v1.88c-5.62,0-7.88-2-7.88-7.01Z"/>
        <path d="M465.12,600.21h2.03v14.48h-2.03v-14.48Z"/>
        <path d="M472.1,614.69h-2.03v-7.47c0-4.37,2.92-7.3,7.44-7.3s7.3,2.92,7.3,7.3v7.47h-2.03v-7.7c0-3.1-2.17-5.18-5.36-5.18s-5.33,2.11-5.33,5.18v7.7Z"/>
        <path d="M494.83,599.92c3.74,0,5.56,1.77,5.56,2.78v.26h.26v-9.99h2.03v14.48c0,4.52-3.04,7.53-7.62,7.53s-7.62-3.1-7.62-7.67,3.04-7.38,7.38-7.38ZM495.07,613.07c3.45,0,5.59-2.14,5.59-5.62s-1.45-5.65-5.71-5.65c-3.42,0-5.47,2.14-5.47,5.65s2.26,5.62,5.59,5.62Z"/>
        <path d="M512.93,599.92c4.58,0,7.62,3.01,7.62,7.53v7.24h-2.03v-2.78l-.26.03v.26c0,1.01-1.82,2.78-5.56,2.78-4.34,0-7.38-2.98-7.38-7.38s3.01-7.67,7.62-7.67ZM512.82,613.07c4.26,0,5.71-2.26,5.71-5.62s-2.14-5.65-5.59-5.65-5.59,2.29-5.59,5.65,2.06,5.62,5.47,5.62Z"/>
      </g>
      <g>
        <path class="cls-2" d="M96.67,546.85c2.34-3.4,6.27-6.04,12.83-6.04,12.46,0,17.36,9.36,17.36,15.93v22.5h-9.06v-22.27c0-5.36-3.93-7.78-8.3-7.78s-8.3,2.42-8.3,7.78v22.27h-9.06v-22.27c0-5.36-3.93-7.78-8.3-7.78s-8.3,2.42-8.3,7.78v22.27h-9.06v-22.5c0-6.57,4.91-15.93,17.36-15.93,6.57,0,10.49,2.64,12.83,6.04Z"/>
        <path class="cls-2" d="M135.93,525.56c2.79,0,4.98,2.26,4.98,4.98,0,2.87-2.19,5.06-4.98,5.06s-4.98-2.19-4.98-5.06c0-2.72,2.19-4.98,4.98-4.98ZM131.4,541.49h9.06v37.75h-9.06v-37.75Z"/>
        <path class="cls-2" d="M174.06,567.84c0,7.7-6.12,11.85-14.72,11.85-8,0-13.14-3.62-15.48-5.74l4.83-7.1c3.17,3.02,7.17,4.53,10.87,4.53,3.1,0,5.44-1.06,5.44-3.25,0-6.49-20.54-2.49-20.54-16.31,0-6.95,5.21-10.95,13.74-10.95,7.47,0,12.38,3.02,15.7,5.74l-4.83,7.02c-4-3.32-7.93-4.45-11.02-4.45s-4.53.98-4.53,2.49c0,5.51,20.54,2.04,20.54,16.16Z"/>
        <path class="cls-2" d="M215.35,560.52v18.72h-9.06v-3.62c-1.81,2.34-5.66,4.3-11.17,4.3-10.95,0-18.8-7.85-18.8-19.55s7.85-19.4,19.48-19.4,19.55,7.85,19.55,19.55ZM195.88,549.27c-6.34,0-10.49,4.15-10.49,11.17s4.15,11.17,10.49,11.17,10.42-4.15,10.42-11.17-4.15-11.17-10.42-11.17Z"/>
        <path class="cls-2" d="M239.82,534.17c-6.19,0-9.14,2.11-9.81,7.32h8.53v8.3h-8.61v29.44h-9.06v-29.44h-3.78v-8.3h3.85c.83-10.19,7.32-15.63,18.87-15.63v8.3Z"/>
        <path class="cls-2" d="M246.69,525.56c2.79,0,4.98,2.26,4.98,4.98,0,2.87-2.19,5.06-4.98,5.06s-4.98-2.19-4.98-5.06c0-2.72,2.19-4.98,4.98-4.98ZM242.16,541.49h9.06v37.75h-9.06v-37.75Z"/>
        <path class="cls-2" d="M274.1,540.81v8.3c-6.04,0-9.66,2.94-9.66,8.98v21.14h-9.06v-21.14c0-11.48,7.25-17.29,18.72-17.29Z"/>
        <path class="cls-2" d="M282.1,525.56c2.79,0,4.98,2.26,4.98,4.98,0,2.87-2.19,5.06-4.98,5.06s-4.98-2.19-4.98-5.06c0-2.72,2.19-4.98,4.98-4.98ZM277.57,541.49h9.06v37.75h-9.06v-37.75Z"/>
        <path class="cls-2" d="M325.51,556.74v22.5h-9.06v-22.27c0-5.36-3.93-7.78-8.3-7.78s-8.3,2.42-8.3,7.78v22.27h-9.06v-22.5c0-6.57,4.91-15.93,17.36-15.93s17.36,9.36,17.36,15.93Z"/>
        <path class="cls-2" d="M325.51,541.49h9.74l9.21,25.59,9.21-25.59h9.74l-14.27,37.75h-9.36l-14.27-37.75Z"/>
        <path class="cls-2" d="M401.31,560.52v18.72h-9.06v-3.62c-1.81,2.34-5.66,4.3-11.17,4.3-10.95,0-18.8-7.85-18.8-19.55s7.85-19.4,19.48-19.4,19.55,7.85,19.55,19.55ZM381.83,549.27c-6.34,0-10.49,4.15-10.49,11.17s4.15,11.17,10.49,11.17,10.42-4.15,10.42-11.17-4.15-11.17-10.42-11.17Z"/>
        <path class="cls-2" d="M424.57,540.81v8.3c-6.04,0-9.66,2.94-9.66,8.98v21.14h-9.06v-21.14c0-11.48,7.25-17.29,18.72-17.29Z"/>
        <path class="cls-2" d="M433.63,568.82c3.32,0,5.59,2.19,5.59,5.51s-2.26,5.59-5.59,5.59-5.59-2.19-5.59-5.59,2.27-5.51,5.59-5.51Z"/>
        <path class="cls-2" d="M462.09,571.62c4.61,0,8-2.19,9.59-6.04h9.44c-2.04,8.76-9.06,14.34-18.95,14.34-11.7,0-19.55-7.85-19.55-19.55s7.85-19.4,19.55-19.4c9.81,0,16.91,5.51,18.87,14.12h-9.44c-1.59-3.7-4.98-5.81-9.51-5.81-6.27,0-10.42,4.15-10.42,11.17s4.15,11.17,10.42,11.17Z"/>
        <path class="cls-2" d="M502.63,540.97c11.7,0,19.48,7.78,19.48,19.4s-7.78,19.55-19.48,19.55-19.55-7.85-19.55-19.55,7.85-19.4,19.55-19.4ZM502.56,571.62c6.34,0,10.49-4.15,10.49-11.17s-4.15-11.17-10.49-11.17-10.42,4.15-10.42,11.17,4.15,11.17,10.42,11.17Z"/>
        <path class="cls-2" d="M555.79,546.85c2.34-3.4,6.27-6.04,12.83-6.04,12.46,0,17.36,9.36,17.36,15.93v22.5h-9.06v-22.27c0-5.36-3.93-7.78-8.3-7.78s-8.3,2.42-8.3,7.78v22.27h-9.06v-22.27c0-5.36-3.93-7.78-8.3-7.78s-8.3,2.42-8.3,7.78v22.27h-9.06v-22.5c0-6.57,4.91-15.93,17.36-15.93,6.57,0,10.49,2.64,12.83,6.04Z"/>
      </g>
    </g>
    <path class="cls-3" d="M501.18,311.61l-34.33-33.65v-55.81c0-7.2-5.84-13.03-13.03-13.03h-18.17c-6.76,0-12.24,5.48-12.24,12.24v14.01l-77.92-76.38c-4.61-4.52-10.61-6.78-16.61-6.78s-12,2.26-16.61,6.78l-155.69,152.61c-6.32,6.19-8.26,15.59-4.92,23.79,3.35,8.19,11.31,13.54,20.16,13.54h8.29v120.47c0,12.43,10.08,22.51,22.51,22.51h252.52c12.43,0,22.51-10.08,22.51-22.51v-120.47h8.29c8.85,0,16.82-5.35,20.16-13.54,3.35-8.19,1.4-17.59-4.92-23.79Z"/>
    <g>
      <path class="cls-2" d="M499.35,62.74c-11.62-20.51-30.31-30.27-51.33-31.12-50.67.43-80.41,51.41-55.55,91.64,15.64,25.31,32.73,49.75,49.23,74.54,2.55,3.84,4.99,3.82,7.61.08,2.8-4.01,5.46-8.11,8.16-12.19,13.34-20.13,26.96-40.09,39.94-60.44,12.94-20.29,13.8-41.57,1.93-62.52Z"/>
      <path class="cls-1" d="M445.45,128.62c-21.68,0-39.26-17.25-39.26-38.54,0-20.89,18.04-38.47,39.46-38.46,21.69,0,39.22,17.24,39.24,38.56.01,20.96-17.92,38.43-39.45,38.44Z"/>
    </g>
    <path class="cls-1" d="M234.18,368.57l88.67,45.82c2.15,1.11,4.57,1.7,6.99,1.7s4.84-.59,6.99-1.7l88.67-45.82v55.12l-50.33,26.01c-7.03,3.63-14.48,6.41-22.16,8.27-7.58,1.83-15.37,2.76-23.17,2.76s-15.59-.93-23.17-2.76c-7.68-1.85-15.14-4.63-22.16-8.27l-50.33-26.01v-55.12h0Z"/>
    <path class="cls-1" d="M329.83,276.57c-1.58,0-3.15.28-4.65.83l-135.01,49.46c-3.77,1.38-4.1,6.59-.53,8.44l135.36,70.08c1.52.78,3.18,1.18,4.83,1.18s3.32-.39,4.83-1.18l135.36-70.08c3.57-1.85,3.24-7.06-.53-8.44l-135.01-49.46c-1.5-.55-3.08-.83-4.65-.83h0Z"/>
  </g>
  <path class="cls-1" d="M206.74,338.49v22.49c-.96-.76-2.16-1.22-3.48-1.22h-.01c-.11,0-.22,0-.33,0-1.19.07-2.29.51-3.17,1.22v-22.49h6.99Z"/>
  <path class="cls-1" d="M219.09,410.43l-10.52-33.66-1.06-3.37-1.07-3.43c-.91.64-2.01,1.01-3.2,1.01-1.3,0-2.5-.45-3.45-1.19l-1.09,3.47-1.06,3.39-10.56,33.79c-.69,2.22-.52,4.6.49,6.7,1.01,2.1,2.76,3.72,4.92,4.57,3.42,1.33,7,2,10.59,2s7.18-.67,10.59-2c2.17-.85,3.92-2.47,4.92-4.57,1.01-2.1,1.18-4.48.49-6.7Z"/>
  <path class="cls-1" d="M206.74,353.26c-1.11-.32-2.28-.49-3.49-.49s-2.38.17-3.49.49c-5.25,1.52-9.1,6.37-9.1,12.1,0,4.93,2.85,9.21,6.99,11.28,1.69.84,3.59,1.31,5.6,1.31,1.9,0,3.71-.42,5.33-1.19,4.29-2.01,7.26-6.37,7.26-11.41,0-5.73-3.85-10.58-9.1-12.1ZM206.45,369.96c-.91.64-2.01,1.01-3.2,1.01-1.3,0-2.5-.45-3.45-1.19-1.31-1.03-2.15-2.62-2.15-4.41s.83-3.35,2.11-4.38c.88-.7,1.97-1.15,3.17-1.22.11,0,.22,0,.33,0h.01c1.31,0,2.52.46,3.48,1.22,1.29,1.03,2.11,2.61,2.11,4.38,0,1.9-.95,3.58-2.4,4.6Z"/>
</svg>