<?xml version="1.0" encoding="UTF-8"?>
<svg id="Layer_1" data-name="Layer 1" xmlns="http://www.w3.org/2000/svg" viewBox="0 0 651.97 651.97">
  <defs>
    <style>
      .cls-1 {
        fill: #fff;
      }

      .cls-2 {
        fill: #2c2f31;
      }

      .cls-3 {
        fill: #f58a2c;
      }
    </style>
  </defs>
  <g>
    <path class="cls-3" d="M549.38,390.61l-44.51-43.63v-72.36c0-9.33-7.57-16.9-16.9-16.9h-23.56c-8.77,0-15.87,7.11-15.87,15.88v18.16l-101.02-99.03c-5.98-5.86-13.76-8.8-21.54-8.8s-15.56,2.93-21.54,8.8l-201.86,197.87c-8.19,8.03-10.71,20.22-6.37,30.84,4.34,10.62,14.67,17.56,26.14,17.56h10.74v156.19c0,16.12,13.07,29.19,29.19,29.19h327.41c16.12,0,29.19-13.07,29.19-29.19v-156.19h10.74c11.47,0,21.8-6.94,26.14-17.56,4.34-10.62,1.82-22.81-6.37-30.84Z"/>
    <g>
      <path class="cls-2" d="M547.01,67.92c-15.07-26.59-39.3-39.25-66.55-40.35-65.7.56-104.25,66.66-72.03,118.82,20.27,32.82,42.44,64.5,63.83,96.65,3.31,4.97,6.48,4.95,9.87.11,3.63-5.19,7.08-10.52,10.58-15.8,17.3-26.1,34.96-51.98,51.79-78.37,16.78-26.31,17.9-53.9,2.51-81.06Z"/>
      <path class="cls-1" d="M477.12,153.34c-28.11,0-50.91-22.37-50.9-49.97,0-27.09,23.39-49.87,51.17-49.86,28.12.01,50.86,22.35,50.87,50,.02,27.17-23.23,49.82-51.14,49.83Z"/>
    </g>
    <path class="cls-1" d="M203.2,464.47l114.96,59.41c2.79,1.44,5.92,2.2,9.06,2.2s6.27-.76,9.06-2.2l114.96-59.41v71.46l-65.25,33.72c-9.11,4.71-18.78,8.31-28.73,10.72-9.82,2.37-19.93,3.57-30.04,3.57s-20.22-1.2-30.04-3.57c-9.96-2.4-19.62-6.01-28.73-10.72l-65.25-33.72v-71.46h0Z"/>
    <path class="cls-1" d="M327.22,345.18c-2.04,0-4.09.36-6.03,1.07l-175.05,64.12c-4.89,1.79-5.32,8.55-.69,10.94l175.51,90.86c1.97,1.02,4.12,1.53,6.27,1.53s4.3-.51,6.27-1.53l175.51-90.86c4.63-2.4,4.2-9.15-.69-10.94l-175.05-64.12c-1.95-.71-3.99-1.07-6.03-1.07h0Z"/>
  </g>
  <path class="cls-1" d="M167.62,425.47v29.16c-1.24-.99-2.81-1.58-4.51-1.59h-.02c-.14,0-.28,0-.43.01-1.55.09-2.96.67-4.11,1.58v-29.16h9.06Z"/>
  <path class="cls-1" d="M183.64,518.73l-13.64-43.64-1.37-4.38-1.39-4.45c-1.18.82-2.61,1.31-4.15,1.31-1.69,0-3.24-.58-4.48-1.55l-1.41,4.5-1.37,4.4-13.69,43.81c-.9,2.88-.68,5.96.63,8.68,1.31,2.72,3.57,4.82,6.38,5.92,4.43,1.73,9.08,2.59,13.73,2.59s9.3-.86,13.73-2.59c2.81-1.1,5.08-3.2,6.38-5.92,1.31-2.72,1.53-5.8.63-8.68Z"/>
  <path class="cls-1" d="M167.62,444.62c-1.44-.42-2.96-.64-4.53-.64s-3.09.22-4.53.64c-6.81,1.97-11.8,8.25-11.8,15.69,0,6.4,3.7,11.95,9.07,14.62,2.19,1.09,4.65,1.7,7.26,1.7,2.47,0,4.81-.55,6.91-1.54,5.56-2.61,9.41-8.26,9.41-14.79,0-7.43-4.99-13.72-11.8-15.69ZM167.24,466.26c-1.18.82-2.61,1.31-4.15,1.31-1.69,0-3.24-.58-4.48-1.55-1.7-1.33-2.79-3.4-2.79-5.72s1.07-4.35,2.74-5.68c1.14-.91,2.56-1.49,4.11-1.58.14,0,.28-.01.43-.01h.02c1.7,0,3.27.6,4.51,1.59,1.67,1.33,2.74,3.38,2.74,5.68,0,2.46-1.23,4.65-3.11,5.96Z"/>
</svg>